<svg width="466" height="90" viewBox="0 0 466 90" fill="none" xmlns="http://www.w3.org/2000/svg">
<g clip-path="url(#clip0)">
<path opacity="0.7" d="M36.7898 11.61C27.242 11.8257 18.1324 15.6589 11.3028 22.3344C4.47324 29.0099 0.433268 38.0297 -0.000237359 47.57C-0.0371593 48.0674 0.0282356 48.567 0.191912 49.0381C0.355588 49.5092 0.614072 49.9418 0.951412 50.3091C1.28875 50.6764 1.69779 50.9707 2.15329 51.1738C2.60878 51.3769 3.10107 51.4845 3.59976 51.49H11.5998C11.6072 49.3958 11.7845 47.3056 12.1298 45.24C14.5398 30.9 24.9398 22.72 37.5898 22.72C41.621 22.7356 45.5807 23.7858 49.0898 25.77C52.275 27.6012 54.9114 30.2524 56.7246 33.4479C58.5377 36.6434 59.4615 40.2664 59.3998 43.94C59.5539 47.825 58.1835 51.6163 55.5809 54.5048C52.9783 57.3932 49.3497 59.15 45.4698 59.4C46.4716 59.4419 47.4753 59.3984 48.4698 59.27C51.6204 58.8633 54.6344 57.7337 57.2764 55.9695C59.9183 54.2053 62.1167 51.8543 63.6998 49.1C65.6665 45.5826 66.6993 41.6199 66.6998 37.59C66.7498 22.9 55.7098 11.24 36.7898 11.61Z" fill="white"/>
<path d="M11.5999 52.67C11.8187 62.2225 15.6585 71.3352 22.3422 78.1637C29.0259 84.9922 38.0542 89.0264 47.5999 89.45C48.0972 89.4869 48.5969 89.4215 49.068 89.2578C49.5391 89.0941 49.9716 88.8357 50.339 88.4983C50.7063 88.161 51.0006 87.7519 51.2037 87.2964C51.4068 86.8409 51.5144 86.3487 51.5199 85.85V77.85C49.4256 77.8425 47.3355 77.6653 45.2699 77.32C30.8899 74.92 22.6999 64.52 22.7099 51.87C22.7255 47.8388 23.7757 43.8791 25.7599 40.37C27.591 37.1847 30.2423 34.5484 33.4378 32.7352C36.6333 30.922 40.2563 29.9982 43.9299 30.06C46.285 29.988 48.6246 30.4657 50.763 31.455C52.9015 32.4444 54.7801 33.9183 56.2499 35.76C58.0845 38.1387 59.1799 41.004 59.3999 44C59.4732 40.3148 58.555 36.6777 56.7412 33.4689C54.9275 30.2602 52.2849 27.5977 49.0899 25.76C45.5771 23.7758 41.6142 22.7257 37.5799 22.71C22.8899 22.71 11.2299 33.75 11.5999 52.67Z" fill="white"/>
<path opacity="0.8" d="M52.6197 77.8499C62.1732 77.6313 71.2871 73.7918 78.1172 67.1083C84.9473 60.4249 88.9837 51.3965 89.4097 41.8499C89.4353 41.3577 89.3612 40.8654 89.192 40.4026C89.0227 39.9397 88.7616 39.5158 88.4245 39.1562C88.0874 38.7967 87.6811 38.5089 87.2301 38.3103C86.779 38.1116 86.2925 38.006 85.7997 38H77.7997C77.7983 40.0944 77.621 42.1851 77.2697 44.25C74.8697 58.56 64.4697 66.7499 51.8297 66.7399C47.7996 66.7408 43.8366 65.7079 40.3197 63.74C37.1265 61.9043 34.4844 59.2454 32.6692 56.0406C30.8539 52.8358 29.932 49.2025 29.9997 45.52C29.9269 43.1647 30.4042 40.8249 31.3937 38.6863C32.3831 36.5477 33.8575 34.6692 35.6997 33.2C38.0756 31.3671 40.9372 30.2718 43.9297 30.05C40.2479 29.9803 36.6149 30.9002 33.41 32.7137C30.2051 34.5273 27.5458 37.1679 25.7097 40.36C23.7301 43.8745 22.6803 47.8362 22.6597 51.8699C22.6597 66.5599 33.6997 78.2199 52.6197 77.8499Z" fill="white"/>
<path opacity="0.5" d="M77.8097 36.79C77.5941 27.2439 73.7624 18.1357 67.089 11.3064C60.4156 4.47703 51.3983 0.435973 41.8597 6.78189e-06C41.3624 -0.0369152 40.8627 0.0284797 40.3916 0.192156C39.9205 0.355832 39.4879 0.614316 39.1206 0.951656C38.7533 1.289 38.459 1.69804 38.2559 2.15353C38.0528 2.60903 37.9452 3.10131 37.9397 3.60001V11.6H38.1497H39.2297C40.7569 11.6529 42.2796 11.7964 43.7897 12.03L44.1897 12.09C48.8979 12.793 53.3617 14.6404 57.1897 17.47C60.257 19.8291 62.7261 22.8769 64.3973 26.367C66.0685 29.857 66.8949 33.6914 66.8097 37.56C66.8093 41.5868 65.7765 45.5462 63.8097 49.06C61.7172 52.7766 58.4946 55.7295 54.6097 57.49C52.6419 58.4022 50.543 58.9995 48.3897 59.26C47.4612 59.3757 46.5245 59.4125 45.5897 59.37C41.6877 59.5594 37.8674 58.2088 34.9514 55.609C32.0355 53.0091 30.2573 49.3681 29.9997 45.47C29.926 49.1551 30.8452 52.792 32.661 55.9995C34.4768 59.207 37.1221 61.8668 40.3197 63.7C43.8371 65.6667 47.7998 66.6996 51.8297 66.7C66.5197 66.75 78.1897 55.71 77.8097 36.79Z" fill="white"/>
<path d="M135 21.47C148.24 21.47 158.15 31.47 158.15 44.81C158.15 58.15 148.22 68.16 135 68.16C121.78 68.16 111.85 58.16 111.85 44.81C111.85 31.46 121.73 21.47 135 21.47ZM135 59.58C143.29 59.58 149.1 53.01 149.1 44.81C149.1 36.61 143.27 30 135 30C126.73 30 120.9 36.58 120.9 44.77C120.9 52.96 126.69 59.58 135 59.58Z" fill="white"/>
<path d="M230.34 46.72C230.275 46.7211 230.212 46.7355 230.153 46.7621C230.095 46.7888 230.042 46.8273 229.999 46.8751C229.956 46.9229 229.923 46.9791 229.903 47.0401C229.882 47.1012 229.874 47.1658 229.88 47.23C230.234 50.8067 231.91 54.1223 234.582 56.5271C237.253 58.9318 240.726 60.2524 244.32 60.23C246.709 60.2679 249.076 59.7703 251.248 58.7735C253.42 57.7768 255.341 56.3063 256.87 54.47C256.912 54.4261 256.962 54.3912 257.018 54.3673C257.074 54.3435 257.134 54.3312 257.195 54.3312C257.256 54.3312 257.316 54.3435 257.372 54.3673C257.427 54.3912 257.478 54.4261 257.52 54.47L262.78 59.47C262.866 59.547 262.92 59.6544 262.929 59.7699C262.938 59.8854 262.903 60.0001 262.83 60.09C259.43 64.26 253.14 68.15 244.22 68.15C231.17 68.15 221.07 58.24 221.07 44.8C221.07 31.36 230.22 21.46 242.89 21.46C255.37 21.46 264.42 31.56 264.42 44.8C264.425 45.4378 264.395 46.0754 264.33 46.71L230.34 46.72ZM230.6 39.1H255C254.384 36.4016 252.89 33.9837 250.753 32.2248C248.616 30.4659 245.956 29.4654 243.19 29.38C240.311 29.3776 237.513 30.3307 235.235 32.0898C232.956 33.8489 231.326 36.3145 230.6 39.1Z" fill="white"/>
<path d="M189.59 21.47H188.59C186.166 21.45 183.761 21.9017 181.51 22.8C179.501 23.4964 177.602 24.4763 175.87 25.71C175.803 25.7601 175.723 25.7907 175.64 25.7982C175.557 25.8057 175.473 25.7899 175.399 25.7525C175.324 25.7151 175.261 25.6577 175.217 25.5866C175.173 25.5155 175.15 25.4336 175.15 25.35V22.88C175.15 22.7597 175.103 22.6442 175.019 22.5582C174.934 22.4722 174.82 22.4226 174.7 22.42H166.84C166.719 22.4226 166.605 22.4722 166.521 22.5582C166.437 22.6442 166.39 22.7597 166.39 22.88V89.33C166.388 89.3899 166.399 89.4495 166.421 89.5053C166.443 89.561 166.476 89.6118 166.518 89.6547C166.56 89.6975 166.61 89.7316 166.665 89.7548C166.72 89.778 166.78 89.79 166.84 89.79H175C175.061 89.7914 175.121 89.7804 175.177 89.7578C175.234 89.7351 175.285 89.7013 175.328 89.6583C175.371 89.6153 175.405 89.5641 175.428 89.5076C175.45 89.4512 175.461 89.3908 175.46 89.33V64.49C175.459 64.4072 175.482 64.326 175.524 64.2551C175.567 64.1842 175.628 64.1265 175.702 64.0882C175.775 64.05 175.858 64.0327 175.94 64.0383C176.023 64.0439 176.102 64.0722 176.17 64.12C180.121 66.7867 184.793 68.1823 189.56 68.12C202.8 68.12 212.71 58.12 212.71 44.77C212.71 31.42 202.83 21.47 189.59 21.47ZM189.59 59.58C181.3 59.58 175.49 53.01 175.49 44.82C175.49 36.62 181.3 30.05 189.59 30.05C197.88 30.05 203.69 36.63 203.69 44.82C203.69 53.01 197.88 59.58 189.59 59.58Z" fill="white"/>
<path d="M392.61 50.4401L380.65 67.0001C380.605 67.0551 380.548 67.0997 380.484 67.1308C380.42 67.1619 380.351 67.1787 380.28 67.1801H370.63C370.545 67.1819 370.462 67.1601 370.389 67.1169C370.317 67.0737 370.258 67.0109 370.219 66.9358C370.181 66.8607 370.164 66.7763 370.171 66.6922C370.178 66.608 370.209 66.5276 370.26 66.4601L386.4 44.0901C386.487 43.9676 386.535 43.8207 386.535 43.67C386.535 43.5194 386.487 43.3725 386.4 43.2501L371.88 23.1401C371.833 23.0716 371.805 22.9918 371.8 22.909C371.795 22.8262 371.812 22.7435 371.85 22.6697C371.888 22.5959 371.945 22.5337 372.015 22.4898C372.086 22.4458 372.167 22.4217 372.25 22.4201H381.8C381.872 22.4196 381.943 22.4367 382.008 22.4697C382.072 22.5028 382.128 22.551 382.17 22.6101L392.61 36.9101L403.05 22.6101C403.091 22.551 403.147 22.5028 403.211 22.4697C403.276 22.4367 403.347 22.4196 403.42 22.4201H413C413.082 22.4217 413.163 22.4458 413.234 22.4898C413.304 22.5337 413.361 22.5959 413.399 22.6697C413.437 22.7435 413.454 22.8262 413.449 22.909C413.444 22.9918 413.416 23.0716 413.37 23.1401L398.82 43.2501C398.732 43.3725 398.684 43.5194 398.684 43.67C398.684 43.8207 398.732 43.9676 398.82 44.0901L415 66.4801C415.046 66.5485 415.074 66.6283 415.079 66.7111C415.084 66.7939 415.067 66.8766 415.029 66.9504C414.991 67.0242 414.934 67.0864 414.864 67.1303C414.793 67.1743 414.712 67.1984 414.63 67.2001H404.98C404.909 67.1987 404.839 67.1819 404.775 67.1508C404.711 67.1197 404.654 67.0751 404.61 67.0201L392.61 50.4401Z" fill="white"/>
<path d="M441.88 21.47C455.13 21.47 465.04 31.47 465.04 44.81C465.04 58.15 455.13 68.16 441.88 68.16C428.63 68.16 418.73 58.16 418.73 44.81C418.73 31.46 428.64 21.47 441.88 21.47ZM441.88 59.58C450.17 59.58 456 53 456 44.81C456 36.62 450.17 30 441.88 30C433.59 30 427.78 36.58 427.78 44.77C427.78 52.96 433.59 59.58 441.88 59.58Z" fill="white"/>
<path d="M331.66 46.72C331.595 46.7211 331.532 46.7355 331.473 46.7621C331.415 46.7888 331.362 46.8273 331.319 46.8751C331.276 46.9229 331.243 46.9791 331.223 47.0401C331.202 47.1012 331.194 47.1658 331.2 47.23C331.554 50.8067 333.231 54.1223 335.902 56.5271C338.573 58.9318 342.046 60.2524 345.64 60.23C348.031 60.2694 350.4 59.7725 352.574 58.7757C354.747 57.7789 356.67 56.3076 358.2 54.47C358.241 54.4264 358.291 54.3917 358.346 54.3679C358.401 54.3442 358.46 54.332 358.52 54.332C358.58 54.332 358.639 54.3442 358.694 54.3679C358.749 54.3917 358.799 54.4264 358.84 54.47L364.1 59.47C364.179 59.5536 364.224 59.6646 364.224 59.78C364.224 59.8953 364.179 60.0063 364.1 60.09C360.7 64.26 354.41 68.15 345.49 68.15C332.44 68.15 322.34 58.24 322.34 44.8C322.34 31.36 331.49 21.46 344.16 21.46C356.64 21.46 365.69 31.56 365.69 44.8C365.695 45.4378 365.665 46.0754 365.6 46.71L331.66 46.72ZM331.92 39.1H356.31C355.694 36.4016 354.2 33.9837 352.063 32.2248C349.926 30.4659 347.266 29.4654 344.5 29.38C341.623 29.3798 338.827 30.334 336.551 32.0929C334.274 33.8518 332.646 36.3162 331.92 39.1Z" fill="white"/>
<path d="M276 22.42H284.33C284.449 22.42 284.564 22.4674 284.648 22.5518C284.732 22.6362 284.78 22.7507 284.78 22.87V27.09C284.778 27.1837 284.806 27.2755 284.859 27.3526C284.912 27.4298 284.988 27.4884 285.076 27.5203C285.164 27.5522 285.26 27.5559 285.351 27.5307C285.441 27.5056 285.521 27.4529 285.58 27.38C287.127 25.5348 289.064 24.0557 291.251 23.0493C293.439 22.0429 295.822 21.5343 298.23 21.56C309.53 21.56 314.23 30.35 314.23 39.81V66.75C314.23 66.8694 314.182 66.9838 314.098 67.0682C314.014 67.1526 313.899 67.2 313.78 67.2H305.5C305.38 67.2 305.266 67.1526 305.182 67.0682C305.097 66.9838 305.05 66.8694 305.05 66.75V41.2C305.05 34.57 301.78 30.13 295.63 30.13C289 30.13 284.78 33.94 284.78 42.05V66.75C284.78 66.8694 284.732 66.9838 284.648 67.0682C284.564 67.1526 284.449 67.2 284.33 67.2H276C275.88 67.2 275.766 67.1526 275.682 67.0682C275.597 66.9838 275.55 66.8694 275.55 66.75V22.87C275.55 22.7507 275.597 22.6362 275.682 22.5518C275.766 22.4674 275.88 22.42 276 22.42Z" fill="white"/>
</g>
<defs>
<clipPath id="clip0">
<rect width="465.04" height="89.79" fill="white"/>
</clipPath>
</defs>
</svg>
